<?xml version="1.0" encoding="UTF-8" standalone="no"?>
<svg
   xmlns:dc="http://purl.org/dc/elements/1.1/"
   xmlns:cc="http://creativecommons.org/ns#"
   xmlns:rdf="http://www.w3.org/1999/02/22-rdf-syntax-ns#"
   xmlns:svg="http://www.w3.org/2000/svg"
   xmlns="http://www.w3.org/2000/svg"
   xmlns:sodipodi="http://sodipodi.sourceforge.net/DTD/sodipodi-0.dtd"
   xmlns:inkscape="http://www.inkscape.org/namespaces/inkscape"
   width="210mm"
   height="297mm"
   viewBox="0 0 210 297"
   version="1.1"
   id="svg8"
   inkscape:version="1.0.2-2 (e86c870879, 2021-01-15)"
   sodipodi:docname="true.svg">
  <defs
     id="defs2" />
  <sodipodi:namedview
     id="base"
     pagecolor="#ffffff"
     bordercolor="#666666"
     borderopacity="1.0"
     inkscape:pageopacity="0.0"
     inkscape:pageshadow="2"
     inkscape:zoom="1.979899"
     inkscape:cx="283.85208"
     inkscape:cy="679.67432"
     inkscape:document-units="mm"
     inkscape:current-layer="layer1"
     inkscape:document-rotation="0"
     showgrid="false"
     inkscape:window-width="1366"
     inkscape:window-height="705"
     inkscape:window-x="-8"
     inkscape:window-y="-8"
     inkscape:window-maximized="1" />
  <metadata
     id="metadata5">
    <rdf:RDF>
      <cc:Work
         rdf:about="">
        <dc:format>image/svg+xml</dc:format>
        <dc:type
           rdf:resource="http://purl.org/dc/dcmitype/StillImage" />
        <dc:title></dc:title>
      </cc:Work>
    </rdf:RDF>
  </metadata>
  <g
     inkscape:label="Layer 1"
     inkscape:groupmode="layer"
     id="layer1">
    <g
       style="fill:#008000"
       id="g847"
       transform="matrix(0.26458333,0,0,0.26458333,74.990476,160.4131)">
      <path
         d="M 8,15 A 7,7 0 1 1 8,1 7,7 0 0 1 8,15 Z m 0,1 A 8,8 0 1 0 8,0 8,8 0 0 0 8,16 Z"
         id="path833"
         style="fill:#008000" />
      <path
         d="M 10.97,4.97 A 0.235,0.235 0 0 0 10.95,4.992 L 7.477,9.417 5.384,7.323 a 0.75,0.75 0 0 0 -1.06,1.06 L 6.97,11.03 A 0.75,0.75 0 0 0 8.049,11.01 L 12.041,6.02 A 0.75,0.75 0 0 0 10.97,4.97 Z"
         id="path835"
         style="fill:#008000" />
    </g>
  </g>
</svg>
